<?xml version="1.0" encoding="UTF-8"?>
<svg xmlns="http://www.w3.org/2000/svg" xmlns:xlink="http://www.w3.org/1999/xlink" width="35px" height="40px" viewBox="0 0 35 40" version="1.1">
<g id="surface1">
<path style=" stroke:none;fill-rule:nonzero;fill:rgb(0%,0%,0%);fill-opacity:1;" d="M 0 7.5 C 0 6.117188 1.117188 5 2.5 5 L 32.5 5 C 33.882812 5 35 6.117188 35 7.5 C 35 8.882812 33.882812 10 32.5 10 L 2.5 10 C 1.117188 10 0 8.882812 0 7.5 Z M 0 20 C 0 18.617188 1.117188 17.5 2.5 17.5 L 32.5 17.5 C 33.882812 17.5 35 18.617188 35 20 C 35 21.382812 33.882812 22.5 32.5 22.5 L 2.5 22.5 C 1.117188 22.5 0 21.382812 0 20 Z M 35 32.5 C 35 33.882812 33.882812 35 32.5 35 L 2.5 35 C 1.117188 35 0 33.882812 0 32.5 C 0 31.117188 1.117188 30 2.5 30 L 32.5 30 C 33.882812 30 35 31.117188 35 32.5 Z M 35 32.5 "/>
</g>
</svg>
